<svg xmlns="http://www.w3.org/2000/svg" width="56.16" height="24" viewBox="0 0 56.16 24">
  <g id="Group_104" data-name="Group 104" transform="translate(10220.521 -3982.085)">
    <g id="Group_103" data-name="Group 103" transform="translate(-10220.521 3982.085)">
      <path id="Path_1174" data-name="Path 1174" d="M43.952,25.787c0-.009-.009-.009-.009-.018a5.427,5.427,0,0,0-2.3-1.863,8.505,8.505,0,0,0-6.623,0,5.576,5.576,0,0,0-2.3,1.863c-.026.035-.044.071-.071.106a3.78,3.78,0,0,0-.609,2.057v.079h-.009v6.164a1.414,1.414,0,0,1-.433,1.007l-.009.009a2.622,2.622,0,0,1-3.444,0A1.545,1.545,0,0,1,28,35.015a1.471,1.471,0,0,1-.221-.786V24.666A1.462,1.462,0,0,0,26.317,23.2h-1.36a1.379,1.379,0,0,0-1.378,1.378v9.369A3.707,3.707,0,0,0,24.189,36c.026.035.044.071.071.106a5.508,5.508,0,0,0,2.3,1.863,8.505,8.505,0,0,0,6.623,0,5.493,5.493,0,0,0,2.3-1.863c0-.009.009-.009.009-.018a4.209,4.209,0,0,0,.742-2.216h.009V27.668a1.493,1.493,0,0,1,.221-.786.73.73,0,0,1,.141-.177,2.622,2.622,0,0,1,3.444,0l.009.009a1.4,1.4,0,0,1,.433,1.007V37.2A1.5,1.5,0,0,0,41.982,38.7H43.4a1.285,1.285,0,0,0,1.289-1.289V28.145A4.117,4.117,0,0,0,43.952,25.787Z" transform="translate(-8.639 -22.185)" fill="#fff"/>
      <g id="Group_101" data-name="Group 101" transform="translate(16.681 2.101)">
        <path id="Path_1111" data-name="Path 1111" d="M25.992,27.9V25.07H25.55v2.808C25.7,27.878,25.85,27.887,25.992,27.9Z" transform="translate(-25.55 -24.505)" fill="#ffe000"/>
        <path id="Path_1112" data-name="Path 1112" d="M25.992,32.247V29.537a3.7,3.7,0,0,1-.442-.026v2.773C25.7,32.265,25.85,32.256,25.992,32.247Z" transform="translate(-25.55 -25.024)" fill="#ffe000"/>
        <path id="Path_1113" data-name="Path 1113" d="M30.024,38.745a5.08,5.08,0,0,1-2.19-.945c-.088.159-.177.309-.274.459a5.349,5.349,0,0,0,2.464,1.068v-.583Z" transform="translate(-25.785 -25.994)" fill="#ffe000"/>
        <path id="Path_1114" data-name="Path 1114" d="M34.153,37.427c-.062-.062-.124-.115-.185-.177a4.7,4.7,0,0,1-2.358,1.325V38.7a4.063,4.063,0,0,1,.053.459,5.2,5.2,0,0,0,2.658-1.536C34.268,37.559,34.206,37.5,34.153,37.427Z" transform="translate(-26.259 -25.93)" fill="#ffe000"/>
        <path id="Path_1115" data-name="Path 1115" d="M35.414,27.869a.43.43,0,0,1-.106-.009c-.009.124-.018.256-.018.389v3.32a3.685,3.685,0,0,1,.442.009V28.24c0-.115.009-.221.018-.327C35.643,27.9,35.528,27.886,35.414,27.869Z" transform="translate(-26.689 -24.831)" fill="#ffe000"/>
        <path id="Path_1116" data-name="Path 1116" d="M38.964,24.48A6.462,6.462,0,0,0,36.633,25.5a3.56,3.56,0,0,0-.283.23c.071.168.141.344.212.512a2.3,2.3,0,0,1,.274-.238,6.038,6.038,0,0,1,2.119-.954V24.48Z" transform="translate(-26.813 -24.436)" fill="#ffe000"/>
        <path id="Path_1117" data-name="Path 1117" d="M43.621,25.9A4.642,4.642,0,0,0,40.91,24.43v.583a4.306,4.306,0,0,1,2.437,1.342.408.408,0,0,0,.062.062c.106-.132.221-.265.327-.389A1.577,1.577,0,0,0,43.621,25.9Z" transform="translate(-27.347 -24.43)" fill="#ffe000"/>
        <path id="Path_1118" data-name="Path 1118" d="M44.817,27.62a2.394,2.394,0,0,1-.4.265,3.944,3.944,0,0,1,.194,1.21v1.784c.15.009.291.026.442.044V29.095A4.375,4.375,0,0,0,44.817,27.62Z" transform="translate(-27.757 -24.803)" fill="#ffe000"/>
        <path id="Path_1119" data-name="Path 1119" d="M45.092,34.632V32.46c-.15.026-.291.062-.442.079v2.093Z" transform="translate(-27.784 -25.369)" fill="#ffe000"/>
        <path id="Path_1120" data-name="Path 1120" d="M44.65,35.735v2.949h.442V35.7A2.549,2.549,0,0,1,44.65,35.735Z" transform="translate(-27.784 -25.748)" fill="#ffe000"/>
        <path id="Path_1121" data-name="Path 1121" d="M35.244,33.909v.706a3.429,3.429,0,0,1-.344,1.519c.106.132.212.274.318.415a4.159,4.159,0,0,0,.477-1.943V33.9h-.45Z" transform="translate(-26.644 -25.538)" fill="#ffe000"/>
        <path id="Path_1122" data-name="Path 1122" d="M26.583,37.208c.1-.141.2-.283.309-.424a.122.122,0,0,0-.035-.026,3.127,3.127,0,0,1-.865-2.225V33.87a3.684,3.684,0,0,1-.442,0v.662A3.733,3.733,0,0,0,26.583,37.208Z" transform="translate(-25.55 -25.534)" fill="#ffe000"/>
      </g>
      <g id="Group_102" data-name="Group 102" transform="translate(37.384)">
        <path id="Path_1123" data-name="Path 1123" d="M67.729,29.662a8.073,8.073,0,0,0-3.32-5.625c-5.74-4.177-11.568-.468-11.568-.468a8.056,8.056,0,0,0-3.824,7.5,9.23,9.23,0,0,0,2.119,5.228l7.223,9.758,6.879-9.281A9.4,9.4,0,0,0,67.729,29.662Zm-1.872,5.316a7.487,7.487,0,0,1-3.064,2.808A9.6,9.6,0,0,1,58.351,38.8a9.392,9.392,0,0,1-4.406-1.015,7.68,7.68,0,0,1-.009-13.722,9.6,9.6,0,0,1,4.424-1,9.725,9.725,0,0,1,4.442,1,7.482,7.482,0,0,1,3.064,2.782,7.587,7.587,0,0,1,1.095,4.062A7.7,7.7,0,0,1,65.857,34.978Z" transform="translate(-48.996 -22.051)" fill="#020202"/>
        <path id="Path_1124" data-name="Path 1124" d="M62.892,24.2a9.7,9.7,0,0,0-4.442-1,9.6,9.6,0,0,0-4.424,1,7.683,7.683,0,0,0,.009,13.722,10.144,10.144,0,0,0,8.848,0,7.542,7.542,0,0,0,3.064-2.808,8.1,8.1,0,0,0,0-8.133A7.467,7.467,0,0,0,62.892,24.2Zm-2.137,9.528a3.22,3.22,0,0,1-4.609,0,3.781,3.781,0,0,1-.9-2.684,3.7,3.7,0,0,1,.9-2.64,3.262,3.262,0,0,1,4.609,0,3.7,3.7,0,0,1,.9,2.64A3.8,3.8,0,0,1,60.756,33.726Z" transform="translate(-49.096 -22.185)" fill="#fff"/>
      </g>
      <path id="Path_1175" data-name="Path 1175" d="M20.541,36.515v1.033a1.127,1.127,0,0,1-1.13,1.13H7.561a.9.9,0,0,1-.9-.9v-.963a2.419,2.419,0,0,1,.565-1.554l6.782-8.044a.332.332,0,0,0-.256-.547H8.285a1.421,1.421,0,0,1-1.422-1.422V24.32a1.132,1.132,0,0,1,1.13-1.13H18.855a1.351,1.351,0,0,1,1.351,1.351v.751a1.766,1.766,0,0,1-.415,1.13L13,34.484a.441.441,0,0,0,.336.724h5.89A1.311,1.311,0,0,1,20.541,36.515Z" transform="translate(-6.66 -22.184)" fill="#fff"/>
    </g>
  </g>
</svg>
